<?xml version="1.0" encoding="utf-8" standalone="no"?>
<!DOCTYPE svg PUBLIC "-//W3C//DTD SVG 1.1//EN"
  "http://www.w3.org/Graphics/SVG/1.1/DTD/svg11.dtd">
<!-- Created with matplotlib (http://matplotlib.org/) -->
<svg height="288pt" version="1.1" viewBox="0 0 432 288" width="432pt" xmlns="http://www.w3.org/2000/svg" xmlns:xlink="http://www.w3.org/1999/xlink">
 <defs>
  <style type="text/css">
*{stroke-linecap:butt;stroke-linejoin:round;}
  </style>
 </defs>
 <g id="figure_1">
  <g id="patch_1">
   <path d="M 0 288 
L 432 288 
L 432 0 
L 0 0 
z
" style="fill:#ffffff;"/>
  </g>
  <g id="axes_1">
   <g id="patch_2">
    <path d="M 54 252 
L 388.8 252 
L 388.8 34.56 
L 54 34.56 
z
" style="fill:#ffffff;"/>
   </g>
   <g id="matplotlib.axis_1">
    <g id="xtick_1">
     <g id="line2d_1">
      <defs>
       <path d="M 0 0 
L 0 6 
" id="m6a06bafdbd" style="stroke:#262626;"/>
      </defs>
      <g>
       <use style="fill:#262626;stroke:#262626;" x="105.765276" xlink:href="#m6a06bafdbd" y="252"/>
      </g>
     </g>
     <g id="text_1">
      <!-- $0.2$ -->
      <defs>
       <path d="M 42 31.640625 
C 42 37.75 41.90625 48.125 37.703125 56.109375 
C 34 63.109375 28.09375 65.59375 22.90625 65.59375 
C 18.09375 65.59375 12 63.40625 8.203125 56.203125 
C 4.203125 48.71875 3.796875 39.4375 3.796875 31.640625 
C 3.796875 25.953125 3.90625 17.28125 7 9.671875 
C 11.296875 -0.609375 19 -2 22.90625 -2 
C 27.5 -2 34.5 -0.109375 38.59375 9.375 
C 41.59375 16.28125 42 24.359375 42 31.640625 
M 22.90625 -0.40625 
C 16.5 -0.40625 12.703125 5.078125 11.296875 12.6875 
C 10.203125 18.5625 10.203125 27.15625 10.203125 32.75 
C 10.203125 40.4375 10.203125 46.828125 11.5 52.921875 
C 13.40625 61.390625 19 64 22.90625 64 
C 27 64 32.296875 61.296875 34.203125 53.125 
C 35.5 47.4375 35.59375 40.734375 35.59375 32.75 
C 35.59375 26.25 35.59375 18.265625 34.40625 12.375 
C 32.296875 1.484375 26.40625 -0.40625 22.90625 -0.40625 
" id="CMR17-48"/>
       <path d="M 18.40625 4.796875 
C 18.40625 7.6875 16 9.671875 13.59375 9.671875 
C 10.703125 9.671875 8.703125 7.28125 8.703125 4.890625 
C 8.703125 2 11.09375 0 13.5 0 
C 16.40625 0 18.40625 2.390625 18.40625 4.796875 
" id="CMMI12-58"/>
       <path d="M 41.703125 15.453125 
L 39.90625 15.453125 
C 38.90625 8.375 38.09375 7.171875 37.703125 6.5625 
C 37.203125 5.765625 30 5.765625 28.59375 5.765625 
L 9.40625 5.765625 
C 13 9.671875 20 16.75 28.5 24.953125 
C 34.59375 30.734375 41.703125 37.53125 41.703125 47.421875 
C 41.703125 59.21875 32.296875 66 21.796875 66 
C 10.796875 66 4.09375 56.3125 4.09375 47.34375 
C 4.09375 43.4375 7 42.9375 8.203125 42.9375 
C 9.203125 42.9375 12.203125 43.546875 12.203125 47.03125 
C 12.203125 50.109375 9.59375 51 8.203125 51 
C 7.59375 51 7 50.90625 6.59375 50.703125 
C 8.5 59.21875 14.296875 63.40625 20.40625 63.40625 
C 29.09375 63.40625 34.796875 56.515625 34.796875 47.421875 
C 34.796875 38.734375 29.703125 31.25 24 24.75 
L 4.09375 2.28125 
L 4.09375 0 
L 39.296875 0 
z
" id="CMR17-50"/>
      </defs>
      <g style="fill:#262626;" transform="translate(99.400236 271.918498)scale(0.1 -0.1)">
       <use transform="scale(0.996264)" xlink:href="#CMR17-48"/>
       <use transform="translate(45.690477 0)scale(0.996264)" xlink:href="#CMMI12-58"/>
       <use transform="translate(72.787654 0)scale(0.996264)" xlink:href="#CMR17-50"/>
      </g>
     </g>
    </g>
    <g id="xtick_2">
     <g id="line2d_2">
      <g>
       <use style="fill:#262626;stroke:#262626;" x="172.760324" xlink:href="#m6a06bafdbd" y="252"/>
      </g>
     </g>
     <g id="text_2">
      <!-- $0.4$ -->
      <defs>
       <path d="M 33.59375 64.40625 
C 33.59375 66.5 33.5 66.5 31.703125 66.5 
L 2 19.59375 
L 2 17 
L 27.796875 17 
L 27.796875 7.140625 
C 27.796875 3.5 27.59375 2.5 20.59375 2.5 
L 18.703125 2.5 
L 18.703125 0 
C 21.90625 0 27.296875 0 30.703125 0 
C 34.09375 0 39.5 0 42.703125 0 
L 42.703125 2.5 
L 40.796875 2.5 
C 33.796875 2.5 33.59375 3.5 33.59375 7.140625 
L 33.59375 17 
L 43.796875 17 
L 43.796875 19.59375 
L 33.59375 19.59375 
z
M 28.09375 57.859375 
L 28.09375 19.59375 
L 4 19.59375 
z
" id="CMR17-52"/>
      </defs>
      <g style="fill:#262626;" transform="translate(166.395284 271.918498)scale(0.1 -0.1)">
       <use transform="scale(0.996264)" xlink:href="#CMR17-48"/>
       <use transform="translate(45.690477 0)scale(0.996264)" xlink:href="#CMMI12-58"/>
       <use transform="translate(72.787654 0)scale(0.996264)" xlink:href="#CMR17-52"/>
      </g>
     </g>
    </g>
    <g id="xtick_3">
     <g id="line2d_3">
      <g>
       <use style="fill:#262626;stroke:#262626;" x="239.755372" xlink:href="#m6a06bafdbd" y="252"/>
      </g>
     </g>
     <g id="text_3">
      <!-- $0.6$ -->
      <defs>
       <path d="M 10.59375 34 
C 10.59375 57.65625 21.796875 63 28.296875 63 
C 30.40625 63 35.5 62.640625 37.5 59 
C 35.90625 59 32.90625 59 32.90625 55.515625 
C 32.90625 52.828125 35.09375 51.921875 36.5 51.921875 
C 37.40625 51.921875 40.09375 52.3125 40.09375 55.625 
C 40.09375 61.78125 35.09375 65.296875 28.203125 65.296875 
C 16.296875 65.296875 3.796875 52.96875 3.796875 31 
C 3.796875 3.953125 15.09375 -2 23.09375 -2 
C 32.796875 -2 42 6.671875 42 20.046875 
C 42 32.515625 33.90625 41.59375 23.703125 41.59375 
C 17.59375 41.59375 13.09375 37.609375 10.59375 30.625 
z
M 23.09375 0.390625 
C 10.796875 0.390625 10.796875 18.75 10.796875 22.4375 
C 10.796875 29.625 14.203125 40 23.5 40 
C 25.203125 40 30.09375 40 33.40625 33.125 
C 35.203125 29.21875 35.203125 25.140625 35.203125 20.140625 
C 35.203125 14.75 35.203125 10.78125 33.09375 6.78125 
C 30.90625 2.671875 27.703125 0.390625 23.09375 0.390625 
" id="CMR17-54"/>
      </defs>
      <g style="fill:#262626;" transform="translate(233.390332 271.918498)scale(0.1 -0.1)">
       <use transform="scale(0.996264)" xlink:href="#CMR17-48"/>
       <use transform="translate(45.690477 0)scale(0.996264)" xlink:href="#CMMI12-58"/>
       <use transform="translate(72.787654 0)scale(0.996264)" xlink:href="#CMR17-54"/>
      </g>
     </g>
    </g>
    <g id="xtick_4">
     <g id="line2d_4">
      <g>
       <use style="fill:#262626;stroke:#262626;" x="306.75042" xlink:href="#m6a06bafdbd" y="252"/>
      </g>
     </g>
     <g id="text_4">
      <!-- $0.8$ -->
      <defs>
       <path d="M 27.203125 35.375 
C 33.5 38.546875 39.90625 43.328125 39.90625 50.984375 
C 39.90625 60.015625 31.09375 65.296875 23 65.296875 
C 13.90625 65.296875 5.90625 58.734375 5.90625 49.6875 
C 5.90625 47.203125 6.5 42.921875 10.40625 39.140625 
C 11.40625 38.15625 15.59375 35.171875 18.296875 33.28125 
C 13.796875 30.984375 3.296875 25.53125 3.296875 14.59375 
C 3.296875 4.359375 13.09375 -2 22.796875 -2 
C 33.5 -2 42.5 5.65625 42.5 15.78125 
C 42.5 24.84375 36.40625 29.015625 32.40625 31.703125 
z
M 14.09375 44.09375 
C 13.296875 44.59375 9.296875 47.671875 9.296875 52.359375 
C 9.296875 58.421875 15.59375 63 22.796875 63 
C 30.703125 63 36.5 57.4375 36.5 50.96875 
C 36.5 41.703125 26.09375 36.421875 25.59375 36.421875 
C 25.5 36.421875 25.40625 36.421875 24.59375 37.03125 
z
M 32.5 23.734375 
C 34 22.640625 38.796875 19.375 38.796875 13.296875 
C 38.796875 5.953125 31.40625 0.390625 23 0.390625 
C 13.90625 0.390625 7 6.84375 7 14.6875 
C 7 22.546875 13.09375 29.09375 20 32.1875 
z
" id="CMR17-56"/>
      </defs>
      <g style="fill:#262626;" transform="translate(300.38538 271.918498)scale(0.1 -0.1)">
       <use transform="scale(0.996264)" xlink:href="#CMR17-48"/>
       <use transform="translate(45.690477 0)scale(0.996264)" xlink:href="#CMMI12-58"/>
       <use transform="translate(72.787654 0)scale(0.996264)" xlink:href="#CMR17-56"/>
      </g>
     </g>
    </g>
    <g id="xtick_5">
     <g id="line2d_5">
      <g>
       <use style="fill:#262626;stroke:#262626;" x="373.745468" xlink:href="#m6a06bafdbd" y="252"/>
      </g>
     </g>
     <g id="text_5">
      <!-- $1.0$ -->
      <defs>
       <path d="M 26.59375 63.40625 
C 26.59375 65.5 26.5 65.5 25.09375 65.5 
C 21.203125 61.1875 15.296875 59.796875 9.703125 59.796875 
C 9.40625 59.796875 8.90625 59.796875 8.796875 59.5 
C 8.703125 59.296875 8.703125 59.09375 8.703125 57 
C 11.796875 57 17 57.59375 21 59.984375 
L 21 7.203125 
C 21 3.6875 20.796875 2.5 12.203125 2.5 
L 9.203125 2.5 
L 9.203125 0 
C 14 0 19 0 23.796875 0 
C 28.59375 0 33.59375 0 38.40625 0 
L 38.40625 2.5 
L 35.40625 2.5 
C 26.796875 2.5 26.59375 3.59375 26.59375 7.15625 
z
" id="CMR17-49"/>
      </defs>
      <g style="fill:#262626;" transform="translate(367.380428 271.918498)scale(0.1 -0.1)">
       <use transform="scale(0.996264)" xlink:href="#CMR17-49"/>
       <use transform="translate(45.690477 0)scale(0.996264)" xlink:href="#CMMI12-58"/>
       <use transform="translate(72.787654 0)scale(0.996264)" xlink:href="#CMR17-48"/>
      </g>
     </g>
    </g>
    <g id="text_6">
     <!-- $\| P_x u_k \|$ -->
     <defs>
      <path d="M 17.21875 71.59375 
C 17.21875 73.203125 17.21875 75 15.21875 75 
C 13.21875 75 13.21875 72.796875 13.21875 71.296875 
L 13.21875 -21.296875 
C 13.21875 -22.90625 13.21875 -25 15.21875 -25 
C 17.21875 -25 17.21875 -23.203125 17.21875 -21.59375 
z
M 36.71875 71.296875 
C 36.71875 72.90625 36.71875 75 34.71875 75 
C 32.71875 75 32.71875 73.203125 32.71875 71.59375 
L 32.71875 -21.59375 
C 32.71875 -23.203125 32.71875 -25 34.71875 -25 
C 36.71875 -25 36.71875 -22.796875 36.71875 -21.296875 
z
" id="CMSY10-107"/>
      <path d="M 29.59375 31.609375 
L 46.40625 31.609375 
C 60.203125 31.609375 74 41.765625 74 53.140625 
C 74 60.90625 67.40625 68 54.796875 68 
L 23.90625 68 
C 22 68 21.09375 68 21.09375 66.109375 
C 21.09375 65.109375 22 65.109375 23.5 65.109375 
C 29.59375 65.109375 29.59375 64.3125 29.59375 63.21875 
C 29.59375 63.03125 29.59375 62.421875 29.203125 60.921875 
L 15.703125 7.375 
C 14.796875 3.890625 14.59375 2.890625 7.59375 2.890625 
C 5.703125 2.890625 4.703125 2.890625 4.703125 1.09375 
C 4.703125 0 5.59375 0 6.203125 0 
C 8.09375 0 10.09375 0 12 0 
L 23.703125 0 
C 25.59375 0 27.703125 0 29.59375 0 
C 30.40625 0 31.5 0 31.5 1.890625 
C 31.5 2.890625 30.59375 2.890625 29.09375 2.890625 
C 23.09375 2.890625 23 3.59375 23 4.578125 
C 23 5.078125 23.09375 5.765625 23.203125 6.265625 
z
M 36.796875 61.40625 
C 37.703125 65.109375 38.09375 65.109375 42 65.109375 
L 51.90625 65.109375 
C 59.40625 65.109375 65.59375 62.703125 65.59375 55.234375 
C 65.59375 52.640625 64.296875 44.171875 59.703125 39.59375 
C 58 37.796875 53.203125 34 44.09375 34 
L 30 34 
z
" id="CMMI12-80"/>
      <path d="M 47.40625 40.71875 
C 44.203125 40.109375 43 37.71875 43 35.828125 
C 43 33.421875 44.90625 32.625 46.296875 32.625 
C 49.296875 32.625 51.40625 35.21875 51.40625 37.921875 
C 51.40625 42.109375 46.59375 44 42.40625 44 
C 36.296875 44 32.90625 38.015625 32 36.125 
C 29.703125 44 23.5 44 21.703125 44 
C 11.5 44 6.09375 30.9375 6.09375 28.734375 
C 6.09375 28.34375 6.5 27.84375 7.203125 27.84375 
C 8 27.84375 8.203125 28.4375 8.40625 28.84375 
C 11.796875 39.921875 18.5 42.015625 21.40625 42.015625 
C 25.90625 42.015625 26.796875 37.8125 26.796875 35.421875 
C 26.796875 33.234375 26.203125 30.9375 25 26.140625 
L 21.59375 12.46875 
C 20.09375 6.484375 17.203125 1 11.90625 1 
C 11.40625 1 8.90625 1 6.796875 2.296875 
C 10.40625 3 11.203125 5.984375 11.203125 7.1875 
C 11.203125 9.1875 9.703125 10.375 7.796875 10.375 
C 5.40625 10.375 2.796875 8.28125 2.796875 5.09375 
C 2.796875 0.890625 7.5 -1 11.796875 -1 
C 16.59375 -1 20 2.796875 22.09375 6.890625 
C 23.703125 1 28.703125 -1 32.40625 -1 
C 42.59375 -1 48 12.078125 48 14.265625 
C 48 14.765625 47.59375 15.171875 47 15.171875 
C 46.09375 15.171875 46 14.671875 45.703125 13.875 
C 43 5.09375 37.203125 1 32.703125 1 
C 29.203125 1 27.296875 3.59375 27.296875 7.6875 
C 27.296875 9.875 27.703125 11.46875 29.296875 18.0625 
L 32.796875 31.625 
C 34.296875 37.625 37.703125 42.015625 42.296875 42.015625 
C 42.5 42.015625 45.296875 42.015625 47.40625 40.71875 
" id="CMMI12-120"/>
      <path d="M 34.09375 5.78125 
C 35.40625 0.203125 40.203125 -1 42.59375 -1 
C 45.796875 -1 48.203125 1.09375 49.796875 4.484375 
C 51.5 8.078125 52.796875 13.96875 52.796875 14.265625 
C 52.796875 14.765625 52.40625 15.171875 51.796875 15.171875 
C 50.90625 15.171875 50.796875 14.671875 50.40625 13.171875 
C 48.59375 6.28125 46.796875 1 42.796875 1 
C 39.796875 1 39.796875 4.296875 39.796875 5.59375 
C 39.796875 7.890625 40.09375 8.875 41.09375 13.078125 
C 41.796875 15.765625 42.5 18.453125 43.09375 21.25 
L 47.203125 37.515625 
C 47.90625 40.015625 47.90625 40.21875 47.90625 40.515625 
C 47.90625 42.015625 46.703125 43.015625 45.203125 43.015625 
C 42.296875 43.015625 41.59375 40.515625 41 38.015625 
C 40 34.125 34.59375 12.671875 33.90625 9.1875 
C 33.796875 9.1875 29.90625 1 22.59375 1 
C 17.40625 1 16.40625 5.484375 16.40625 9.1875 
C 16.40625 14.875 19.203125 22.84375 21.796875 29.53125 
C 23 32.734375 23.5 34.03125 23.5 36.015625 
C 23.5 40.3125 20.40625 44 15.59375 44 
C 6.40625 44 2.703125 29.53125 2.703125 28.734375 
C 2.703125 28.34375 3.09375 27.84375 3.796875 27.84375 
C 4.703125 27.84375 4.796875 28.234375 5.203125 29.625 
C 7.59375 38.140625 11.5 41.90625 15.296875 41.90625 
C 16.296875 41.90625 17.90625 41.90625 17.90625 38.71875 
C 17.90625 36.125 16.796875 33.234375 15.296875 29.4375 
C 10.90625 17.5625 10.40625 13.765625 10.40625 10.78125 
C 10.40625 0.59375 18.09375 -1 22.203125 -1 
C 28.59375 -1 32.09375 3.390625 34.09375 5.78125 
" id="CMMI12-117"/>
      <path d="M 28.09375 66.515625 
C 28.203125 66.921875 28.40625 67.515625 28.40625 68 
C 28.40625 69 27.40625 69 27.203125 69 
C 27.09375 69 23.5 68.640625 21.703125 68.390625 
C 20 68.390625 18.5 68.09375 16.703125 68.09375 
C 14.296875 67.890625 13.59375 67.796875 13.59375 66 
C 13.59375 65 14.59375 65 15.59375 65 
C 20.703125 65 20.703125 64.109375 20.703125 63.125 
C 20.703125 62.734375 20.703125 62.53125 20.203125 60.75 
L 5.90625 3.875 
C 5.5 2.375 5.5 2.1875 5.5 1.578125 
C 5.5 -0.59375 7.203125 -1 8.203125 -1 
C 11 -1 11.59375 1.203125 12.40625 4.296875 
L 17.09375 22.953125 
C 24.296875 22.15625 28.59375 19.15625 28.59375 14.375 
C 28.59375 13.765625 28.59375 13.375 28.296875 11.875 
C 27.90625 10.375 27.90625 9.1875 27.90625 8.6875 
C 27.90625 2.890625 31.703125 -1 36.796875 -1 
C 41.40625 -1 43.796875 3.1875 44.59375 4.59375 
C 46.703125 8.28125 48 13.875 48 14.265625 
C 48 14.765625 47.59375 15.171875 47 15.171875 
C 46.09375 15.171875 46 14.765625 45.59375 13.171875 
C 44.203125 7.984375 42.09375 1 37 1 
C 35 1 33.703125 2 33.703125 5.78125 
C 33.703125 7.6875 34.09375 9.875 34.5 11.375 
C 34.90625 13.171875 34.90625 13.265625 34.90625 14.46875 
C 34.90625 20.359375 29.59375 23.65625 20.40625 24.84375 
C 24 27.046875 27.59375 30.9375 29 32.4375 
C 34.703125 38.8125 38.59375 42.015625 43.203125 42.015625 
C 45.5 42.015625 46.09375 41.40625 46.796875 40.8125 
C 43.09375 40.40625 41.703125 37.8125 41.703125 35.828125 
C 41.703125 33.421875 43.59375 32.625 45 32.625 
C 47.703125 32.625 50.09375 34.921875 50.09375 38.125 
C 50.09375 41.015625 47.796875 44 43.296875 44 
C 37.796875 44 33.296875 40.109375 26.203125 32.125 
C 25.203125 30.9375 21.5 27.140625 17.796875 25.75 
z
" id="CMMI12-107"/>
     </defs>
     <g style="fill:#262626;" transform="translate(203.860997 286.683686)scale(0.11 -0.11)">
      <use transform="translate(0 14.943915)scale(0.996264)" xlink:href="#CMSY10-107"/>
      <use transform="translate(49.813383 14.943915)scale(0.996264)" xlink:href="#CMMI12-80"/>
      <use transform="translate(112.690615 0)scale(0.697382)" xlink:href="#CMMI12-120"/>
      <use transform="translate(151.992406 14.943915)scale(0.996264)" xlink:href="#CMMI12-117"/>
      <use transform="translate(207.512736 0)scale(0.697382)" xlink:href="#CMMI12-107"/>
      <use transform="translate(245.866119 14.943915)scale(0.996264)" xlink:href="#CMSY10-107"/>
     </g>
    </g>
   </g>
   <g id="matplotlib.axis_2">
    <g id="ytick_1">
     <g id="line2d_6">
      <defs>
       <path d="M 0 0 
L -6 0 
" id="m058aefdf05" style="stroke:#262626;"/>
      </defs>
      <g>
       <use style="fill:#262626;stroke:#262626;" x="54" xlink:href="#m058aefdf05" y="243.922568"/>
      </g>
     </g>
     <g id="text_7">
      <!-- $0.0$ -->
      <g style="fill:#262626;" transform="translate(28.269921 247.381817)scale(0.1 -0.1)">
       <use transform="scale(0.996264)" xlink:href="#CMR17-48"/>
       <use transform="translate(45.690477 0)scale(0.996264)" xlink:href="#CMMI12-58"/>
       <use transform="translate(72.787654 0)scale(0.996264)" xlink:href="#CMR17-48"/>
      </g>
     </g>
    </g>
    <g id="ytick_2">
     <g id="line2d_7">
      <g>
       <use style="fill:#262626;stroke:#262626;" x="54" xlink:href="#m058aefdf05" y="204.02542"/>
      </g>
     </g>
     <g id="text_8">
      <!-- $0.2$ -->
      <g style="fill:#262626;" transform="translate(28.269921 207.484669)scale(0.1 -0.1)">
       <use transform="scale(0.996264)" xlink:href="#CMR17-48"/>
       <use transform="translate(45.690477 0)scale(0.996264)" xlink:href="#CMMI12-58"/>
       <use transform="translate(72.787654 0)scale(0.996264)" xlink:href="#CMR17-50"/>
      </g>
     </g>
    </g>
    <g id="ytick_3">
     <g id="line2d_8">
      <g>
       <use style="fill:#262626;stroke:#262626;" x="54" xlink:href="#m058aefdf05" y="164.128272"/>
      </g>
     </g>
     <g id="text_9">
      <!-- $0.4$ -->
      <g style="fill:#262626;" transform="translate(28.269921 167.587521)scale(0.1 -0.1)">
       <use transform="scale(0.996264)" xlink:href="#CMR17-48"/>
       <use transform="translate(45.690477 0)scale(0.996264)" xlink:href="#CMMI12-58"/>
       <use transform="translate(72.787654 0)scale(0.996264)" xlink:href="#CMR17-52"/>
      </g>
     </g>
    </g>
    <g id="ytick_4">
     <g id="line2d_9">
      <g>
       <use style="fill:#262626;stroke:#262626;" x="54" xlink:href="#m058aefdf05" y="124.231124"/>
      </g>
     </g>
     <g id="text_10">
      <!-- $0.6$ -->
      <g style="fill:#262626;" transform="translate(28.269921 127.690373)scale(0.1 -0.1)">
       <use transform="scale(0.996264)" xlink:href="#CMR17-48"/>
       <use transform="translate(45.690477 0)scale(0.996264)" xlink:href="#CMMI12-58"/>
       <use transform="translate(72.787654 0)scale(0.996264)" xlink:href="#CMR17-54"/>
      </g>
     </g>
    </g>
    <g id="ytick_5">
     <g id="line2d_10">
      <g>
       <use style="fill:#262626;stroke:#262626;" x="54" xlink:href="#m058aefdf05" y="84.333976"/>
      </g>
     </g>
     <g id="text_11">
      <!-- $0.8$ -->
      <g style="fill:#262626;" transform="translate(28.269921 87.793225)scale(0.1 -0.1)">
       <use transform="scale(0.996264)" xlink:href="#CMR17-48"/>
       <use transform="translate(45.690477 0)scale(0.996264)" xlink:href="#CMMI12-58"/>
       <use transform="translate(72.787654 0)scale(0.996264)" xlink:href="#CMR17-56"/>
      </g>
     </g>
    </g>
    <g id="ytick_6">
     <g id="line2d_11">
      <g>
       <use style="fill:#262626;stroke:#262626;" x="54" xlink:href="#m058aefdf05" y="44.436828"/>
      </g>
     </g>
     <g id="text_12">
      <!-- $1.0$ -->
      <g style="fill:#262626;" transform="translate(28.269921 47.896077)scale(0.1 -0.1)">
       <use transform="scale(0.996264)" xlink:href="#CMR17-49"/>
       <use transform="translate(45.690477 0)scale(0.996264)" xlink:href="#CMMI12-58"/>
       <use transform="translate(72.787654 0)scale(0.996264)" xlink:href="#CMR17-48"/>
      </g>
     </g>
    </g>
    <g id="text_13">
     <!-- $\|P^\perp_x u_k\|$ -->
     <defs>
      <path d="M 40.90625 63.203125 
C 40.90625 65 40.90625 66.796875 38.90625 66.796875 
C 36.90625 66.796875 36.90625 64.703125 36.90625 63.203125 
L 36.90625 4 
L 9.09375 4 
C 7.59375 4 5.5 4 5.5 2 
C 5.5 0 7.59375 0 9.09375 0 
L 68.796875 0 
C 70.5 0 72.296875 0 72.296875 2 
C 72.296875 4 70.5 4 68.796875 4 
L 40.90625 4 
z
" id="CMSY10-63"/>
     </defs>
     <g style="fill:#262626;" transform="translate(22.139026 162.519923)rotate(-90)scale(0.11 -0.11)">
      <use transform="translate(0 24.62935)scale(0.996264)" xlink:href="#CMSY10-107"/>
      <use transform="translate(49.813383 24.62935)scale(0.996264)" xlink:href="#CMMI12-80"/>
      <use transform="translate(126.239204 60.782989)scale(0.697382)" xlink:href="#CMSY10-63"/>
      <use transform="translate(112.690615 0)scale(0.697382)" xlink:href="#CMMI12-120"/>
      <use transform="translate(180.978329 24.62935)scale(0.996264)" xlink:href="#CMMI12-117"/>
      <use transform="translate(236.498659 9.685436)scale(0.697382)" xlink:href="#CMMI12-107"/>
      <use transform="translate(274.852041 24.62935)scale(0.996264)" xlink:href="#CMSY10-107"/>
     </g>
    </g>
   </g>
   <g id="Quiver_1">
    <path clip-path="url(#p6105aecc77)" d="M 70.471658 44.372379 
L 76.444263 149.435288 
L 78.879957 148.039297 
L 75.832104 160.787832 
L 71.3591 148.466842 
L 73.93731 149.577803 
L 67.964706 44.514894 
L 70.471658 44.372379 
"/>
    <path clip-path="url(#p6105aecc77)" d="M 79.959246 145.304881 
L 81.053003 146.956739 
L 82.453508 144.523637 
L 86.244439 157.071282 
L 76.172573 148.682476 
L 78.959358 148.343019 
L 77.865601 146.69116 
L 79.959246 145.304881 
"/>
    <path clip-path="url(#p6105aecc77)" d="M 90.341588 154.822522 
L 91.182701 155.504912 
L 91.706368 153.140296 
L 98.070331 162.487533 
L 87.612029 158.186976 
L 89.817922 157.187139 
L 88.976809 156.504749 
L 90.341588 154.822522 
"/>
    <path clip-path="url(#p6105aecc77)" d="M 102.429704 160.635474 
L 103.414302 161.077506 
L 103.313769 158.666279 
L 111.833643 166.040396 
L 100.661574 164.573862 
L 102.530237 163.046701 
L 101.545639 162.604668 
L 102.429704 160.635474 
"/>
    <path clip-path="url(#p6105aecc77)" d="M 116.707678 164.315665 
L 117.870492 164.604108 
L 117.284562 161.990037 
L 128.047374 168.362903 
L 115.553908 168.966921 
L 117.293607 166.929735 
L 116.130793 166.641293 
L 116.707678 164.315665 
"/>
    <path clip-path="url(#p6105aecc77)" d="M 133.631718 166.752122 
L 136.206151 167.101291 
L 135.299517 164.444335 
L 147.234396 169.864042 
L 134.28709 171.90899 
L 135.868675 169.58951 
L 133.294242 169.240341 
L 133.631718 166.752122 
"/>
    <path clip-path="url(#p6105aecc77)" d="M 153.745362 168.374869 
L 158.752131 168.763522 
L 157.694729 166.162887 
L 169.920574 170.889753 
L 157.111731 173.673293 
L 158.557798 171.26699 
L 153.551029 170.878338 
L 153.745362 168.374869 
"/>
    <path clip-path="url(#p6105aecc77)" d="M 177.573217 169.475866 
L 185.348116 169.935313 
L 184.242928 167.354623 
L 196.553876 171.855191 
L 183.798552 174.874504 
L 185.199991 172.44194 
L 177.425092 171.982494 
L 177.573217 169.475866 
"/>
    <path clip-path="url(#p6105aecc77)" d="M 205.525557 170.460325 
L 216.116316 171.283343 
L 215.059136 168.682618 
L 227.284578 173.410525 
L 214.475499 176.192975 
L 215.92177 173.786796 
L 205.331012 172.963777 
L 205.525557 170.460325 
"/>
    <path clip-path="url(#p6105aecc77)" d="M 237.642547 171.951907 
L 250.476964 173.798272 
L 249.59181 171.134083 
L 261.482545 176.649966 
L 248.519152 178.590321 
L 250.119411 176.283685 
L 237.284995 174.437319 
L 237.642547 171.951907 
"/>
    <path clip-path="url(#p6105aecc77)" d="M 273.015646 175.004056 
L 286.393632 178.848622 
L 285.880511 176.08853 
L 296.90681 183.176215 
L 283.79989 183.328495 
L 285.700091 181.261944 
L 272.322106 177.417378 
L 273.015646 175.004056 
"/>
    <path clip-path="url(#p6105aecc77)" d="M 308.823687 181.203877 
L 319.844678 187.576665 
L 320.014754 184.774438 
L 328.998082 194.319823 
L 316.243899 191.295691 
L 318.587726 189.750416 
L 307.566735 183.377628 
L 308.823687 181.203877 
"/>
    <path clip-path="url(#p6105aecc77)" d="M 339.646251 191.981065 
L 345.903097 199.397008 
L 347.01267 196.818201 
L 352.229983 208.842933 
L 341.255125 201.675852 
L 343.983915 201.016225 
L 337.72707 193.600282 
L 339.646251 191.981065 
"/>
    <path clip-path="url(#p6105aecc77)" d="M 359.701432 206.331539 
L 361.659292 211.171511 
L 363.516241 209.066007 
L 364.732717 222.117242 
L 356.532961 211.890877 
L 359.331532 212.113134 
L 357.373672 207.273163 
L 359.701432 206.331539 
"/>
    <path clip-path="url(#p6105aecc77)" d="M 368.704291 219.93378 
L 368.940906 221.020062 
L 370.876855 219.460549 
L 369.984165 231.033214 
L 364.359163 220.880242 
L 366.768342 221.493293 
L 366.531727 220.407011 
L 368.704291 219.93378 
"/>
    <path clip-path="url(#p6105aecc77)" d="M 371.753289 229.554776 
L 371.850833 230.221904 
L 373.087544 229.359689 
L 372.061599 236.323596 
L 369.084778 229.944951 
L 370.516577 230.416991 
L 370.419034 229.749864 
L 371.753289 229.554776 
"/>
    <path clip-path="url(#p6105aecc77)" d="M 372.90953 235.432596 
L 372.952469 235.826234 
L 373.696805 235.346718 
L 372.945285 239.411913 
L 371.334979 235.604354 
L 372.165194 235.912113 
L 372.122254 235.518475 
L 372.90953 235.432596 
"/>
    <path clip-path="url(#p6105aecc77)" d="M 373.253466 240.162345 
L 374.282616 239.443228 
L 374.174418 238.192399 
L 373.037069 237.660687 
L 372.007918 238.379804 
L 372.116117 239.630633 
L 373.253466 240.162345 
L 374.282616 239.443228 
"/>
    <path clip-path="url(#p6105aecc77)" d="M 373.528209 242.179445 
L 374.567616 241.475235 
L 374.477457 240.222976 
L 373.347889 239.674928 
L 372.308481 240.379138 
L 372.398641 241.631396 
L 373.528209 242.179445 
L 374.567616 241.475235 
"/>
    <path clip-path="url(#p6105aecc77)" d="M 373.659676 243.369447 
L 374.705949 242.675479 
L 374.628092 241.422395 
L 373.50396 240.86328 
L 372.457687 241.557249 
L 372.535545 242.810332 
L 373.659676 243.369447 
L 374.705949 242.675479 
"/>
   </g>
   <g id="patch_3">
    <path d="M 54 252 
L 54 34.56 
" style="fill:none;stroke:#262626;stroke-linecap:square;stroke-linejoin:miter;stroke-width:1.25;"/>
   </g>
   <g id="patch_4">
    <path d="M 388.8 252 
L 388.8 34.56 
" style="fill:none;stroke:#262626;stroke-linecap:square;stroke-linejoin:miter;stroke-width:1.25;"/>
   </g>
   <g id="patch_5">
    <path d="M 54 252 
L 388.8 252 
" style="fill:none;stroke:#262626;stroke-linecap:square;stroke-linejoin:miter;stroke-width:1.25;"/>
   </g>
   <g id="patch_6">
    <path d="M 54 34.56 
L 388.8 34.56 
" style="fill:none;stroke:#262626;stroke-linecap:square;stroke-linejoin:miter;stroke-width:1.25;"/>
   </g>
  </g>
 </g>
 <defs>
  <clipPath id="p6105aecc77">
   <rect height="217.44" width="334.8" x="54" y="34.56"/>
  </clipPath>
 </defs>
</svg>
